<svg id="Layer_1" data-name="Layer 1" xmlns="http://www.w3.org/2000/svg" viewBox="0 0 296.66 316.45"><path d="M56.78,130.88l34,9.14L87,148.5l-5.92-2.05-1.29,3,5.51,3L81.61,161l-30-18.11ZM75.37,144.2q-5.69-1.72-13.94-4.57,8.61,5.26,12.7,7.43Z" transform="translate(-51.56 -42.29)"/><path d="M82.2,92.77l9.14,13.79,18.51,7.33-5.78,7.34-14-6.33,11.72,9.21-5.59,7.11-27.34-21.5,5.59-7.11L85.09,111,77,99.45Z" transform="translate(-51.56 -42.29)"/><path d="M113.18,66.53,134,94.37l-7.24,5.42L118,88.1l-2.17,1.62,8.76,11.7-7.24,5.42L96.53,79l7.24-5.42,7.46,10,2.16-1.62-7.45-10Z" transform="translate(-51.56 -42.29)"/><path d="M139.67,52.92l14.12,31.79-8.26,3.67L131.41,56.59Z" transform="translate(-51.56 -42.29)"/><path d="M167.7,44.4l6.06,27.15,5.37-1.19,1.51,6.79-14.19,3.17-7.58-33.95Z" transform="translate(-51.56 -42.29)"/><path d="M234.39,57.62l-8.92-1.48L226,53a16.55,16.55,0,0,0,.36-3.73,1.35,1.35,0,0,0-2.32-.5,10.77,10.77,0,0,0-.84,3.22l-2.73,16.47a9.72,9.72,0,0,0-.21,3.09,1.16,1.16,0,0,0,1.07.92,1.32,1.32,0,0,0,1.46-.6,9.83,9.83,0,0,0,.88-3.17l.68-4.06-1.8-.3.86-5.22,10.45,1.74-3.06,18.42-5.6-.94-.42-2.59a6.41,6.41,0,0,1-2.7,2,6.52,6.52,0,0,1-3.41.25,8.71,8.71,0,0,1-4-1.79A8.17,8.17,0,0,1,212.1,73a8.75,8.75,0,0,1-.71-3.59A42.24,42.24,0,0,1,212,64.1l1.69-10.19a35,35,0,0,1,1.72-7.06,7.41,7.41,0,0,1,3.72-3.57,10.79,10.79,0,0,1,6.8-.78,12.27,12.27,0,0,1,6.24,2.69,7.62,7.62,0,0,1,2.73,4.39,20.34,20.34,0,0,1-.28,6.56Z" transform="translate(-51.56 -42.29)"/><path d="M275.63,59.87,265.93,81a41.24,41.24,0,0,1-2.55,4.94,7.59,7.59,0,0,1-2.76,2.35,7.92,7.92,0,0,1-4.1.93A12.67,12.67,0,0,1,251.71,88a13.79,13.79,0,0,1-4.57-3.24A8.33,8.33,0,0,1,245,80.81a7.52,7.52,0,0,1,.19-3.76q.57-1.76,3-7.11l8.59-18.7L265.05,55l-10.89,23.7a10.59,10.59,0,0,0-1,2.75,1,1,0,0,0,.65,1,1,1,0,0,0,1.29-.18,12.58,12.58,0,0,0,1.6-2.89l10.7-23.29Z" transform="translate(-51.56 -42.29)"/><path d="M293.53,71.24l7,5.77a21.21,21.21,0,0,1,4,4,6.46,6.46,0,0,1,1.25,3.19,5.72,5.72,0,0,1-.64,2.91,23.33,23.33,0,0,1-2.78,4l-1.92,2.34a12.79,12.79,0,0,1-3.61,3.32,4.77,4.77,0,0,1-3.44.21,12,12,0,0,1-4.23-2.42L287.35,93l-8.88,10.83-7-5.74Zm3.22,10.33-5.61,6.85.5.44a2.12,2.12,0,0,0,1.73.62,4.53,4.53,0,0,0,2-1.66l1.82-2.21a3.36,3.36,0,0,0,1-2.15C298.14,83,297.66,82.32,296.75,81.57Z" transform="translate(-51.56 -42.29)"/><path d="M333.2,112.82,327.63,117l-3.22-4.3-22.28,16.67-5.42-7.24L319,105.45l-3.2-4.28L321.36,97Z" transform="translate(-51.56 -42.29)"/><path d="M348.22,142.37,318.4,161l-3.69-8.47,5.54-2.94-1.29-3-5.95,2L309.27,140,343,130.39Zm-22.41,4.54q5.13-3,12.84-7.1-9.7,2.73-14.09,4.24Z" transform="translate(-51.56 -42.29)"/><path d="M325.29,298.12l-6,6.83a21.59,21.59,0,0,1-4.19,3.88,6.3,6.3,0,0,1-3.24,1.13,5.68,5.68,0,0,1-2.88-.74,23.37,23.37,0,0,1-3.85-2.92l-2.28-2a12.62,12.62,0,0,1-3.18-3.72,4.73,4.73,0,0,1-.09-3.45,12.15,12.15,0,0,1,2.56-4.14l1.61-1.82-10.5-9.26,6-6.79ZM314.85,301l-6.64-5.86-.46.49a2.09,2.09,0,0,0-.68,1.7,4.46,4.46,0,0,0,1.59,2.05l2.14,1.89a3.34,3.34,0,0,0,2.11,1.11C313.43,302.31,314.07,301.85,314.85,301Z" transform="translate(-51.56 -42.29)"/><path d="M297.19,326.09l-5.31,3.58a49.73,49.73,0,0,1-7.46,4.45,6,6,0,0,1-4.47,0q-2.32-.89-4.81-4.57-2.28-3.36-2.22-5.09c0-1.15.82-2.35,2.35-3.61a6.84,6.84,0,0,1-4,.54,5.27,5.27,0,0,1-2.1-1.05,33.82,33.82,0,0,1-3.07-4.14l-5.13-7.6,7-4.71,6.47,9.58a8,8,0,0,0,2.3,2.62c.49.2,1.25,0,2.29-.74l-8.79-13,7.5-5.06Zm-10.83.13L282,319.81a4,4,0,0,0-1.54,1.55c-.18.46.16,1.32,1,2.59l1.07,1.59c.61.91,1.18,1.4,1.7,1.46A3.3,3.3,0,0,0,286.36,326.22Z" transform="translate(-51.56 -42.29)"/><path d="M235.19,334.4c-1.14-3.3-1.86-5.67-2.18-7.1a8.32,8.32,0,0,1,2.59-8,12.71,12.71,0,0,1,4.56-2.59,13.08,13.08,0,0,1,5-.77,8.39,8.39,0,0,1,7.09,4.66,74.35,74.35,0,0,1,2.69,7l1.94,5.62q1.69,5,2.18,7.1a8.41,8.41,0,0,1-.17,4.28,8.3,8.3,0,0,1-2.42,3.76A12.8,12.8,0,0,1,252,351a13.08,13.08,0,0,1-5,.77,8.36,8.36,0,0,1-7.09-4.66,71.61,71.61,0,0,1-2.69-7Zm12.27,7.87a10.76,10.76,0,0,0,1.27,2.85,1.06,1.06,0,0,0,1.26.28,1.26,1.26,0,0,0,.85-.87,7.61,7.61,0,0,0-.7-3.18L244.86,326a16.37,16.37,0,0,0-1.45-3.46,1.08,1.08,0,0,0-1.32-.29,1.11,1.11,0,0,0-.85,1.15,18,18,0,0,0,1,3.77Z" transform="translate(-51.56 -42.29)"/><path d="M210.57,358.62l-2.33-23.13q-.53-5.19-.57-6.69a5.19,5.19,0,0,1,.7-2.78,4.42,4.42,0,0,1,2.19-1.89,16.17,16.17,0,0,1,4.43-.91l4.51-.46.61,6.05c-.55,0-.94,0-1.19.05a2.33,2.33,0,0,0-1.47.63,1.8,1.8,0,0,0-.52,1.22c0,.46,0,1.34.18,2.66l2.46,24.34Z" transform="translate(-51.56 -42.29)"/><path d="M190.26,358.75l-15-1.6.74-6.93,6,.64.71-6.55-5.62-.6.7-6.58,5.62.6.81-7.61-6.6-.7.74-6.93L194,324.16Z" transform="translate(-51.56 -42.29)"/><path d="M140.4,331.26l8.49,3.12-2.09,5.67a11.09,11.09,0,0,0-.86,3.19c0,.48.36.83,1,1.06a1.34,1.34,0,0,0,1.6-.26,12.26,12.26,0,0,0,1.47-3.12l5.57-15.17a11.33,11.33,0,0,0,.85-3.21,1.54,1.54,0,0,0-2.51-.92,12.78,12.78,0,0,0-1.55,3.31l-1.5,4.1-8.49-3.11.46-1.27a26.62,26.62,0,0,1,3.36-6.93,7.88,7.88,0,0,1,4.53-2.56,11.67,11.67,0,0,1,6.63.62,13.43,13.43,0,0,1,5.65,3.61,7,7,0,0,1,1.84,4.92,26,26,0,0,1-1.86,7.48l-3.5,9.54a45.88,45.88,0,0,1-2.18,5.21,8.05,8.05,0,0,1-2.69,2.87,8.59,8.59,0,0,1-4.27,1.34,14.47,14.47,0,0,1-10.9-4.57,7.45,7.45,0,0,1-1.88-4.8,23.21,23.21,0,0,1,1.71-7Z" transform="translate(-51.56 -42.29)"/><path d="M101.79,325.28l3.95-5.74,4.42,3,15.8-22.9,7.44,5.13-15.79,22.91,4.41,3-4,5.74Z" transform="translate(-51.56 -42.29)"/><path d="M82.4,290.94,88,297.23,86,298.94a4.93,4.93,0,0,0-1.51,1.76,1.17,1.17,0,0,0,.34,1.14,1.36,1.36,0,0,0,1.31.48,3.9,3.9,0,0,0,1.8-1,5.73,5.73,0,0,0,1.65-2.09,6.86,6.86,0,0,0-.1-3.33q-1.3-6.88-.62-9.59c.46-1.8,2-3.83,4.52-6.08a13.2,13.2,0,0,1,4.68-3,6.83,6.83,0,0,1,4.44.57,13.22,13.22,0,0,1,4.73,3.56,12.94,12.94,0,0,1,3.08,5.56,6.76,6.76,0,0,1-.4,4.83,18.22,18.22,0,0,1-4,4.6l-1.71,1.5-5.56-6.3,3.17-2.8a5.51,5.51,0,0,0,1.65-1.92,1.38,1.38,0,0,0-.41-1.32,1.45,1.45,0,0,0-1.42-.53A4,4,0,0,0,99.8,286c-1.54,1.35-2.36,2.45-2.46,3.29a27.06,27.06,0,0,0,.43,5.26,40.54,40.54,0,0,1,.53,5.5,7.57,7.57,0,0,1-.89,3.2,12.42,12.42,0,0,1-2.94,3.56,12.59,12.59,0,0,1-5.06,3.1,6.83,6.83,0,0,1-4.35-.56A13.2,13.2,0,0,1,80.64,306a14.48,14.48,0,0,1-3.12-5.26,6.3,6.3,0,0,1,0-4.36,15.18,15.18,0,0,1,3.87-4.49Z" transform="translate(-51.56 -42.29)"/><rect x="130.35" y="66.48" width="36.17" height="182.45"/><rect x="181.91" y="108.78" width="36.17" height="182.45" transform="translate(-51.56 357.71) rotate(-90)"/><rect x="181.91" y="108.78" width="36.17" height="182.45" transform="translate(-134.4 157.71) rotate(-45)"/><rect x="181.91" y="108.78" width="36.17" height="182.45" transform="translate(148.44 -125.13) rotate(45)"/></svg>